<?xml version="1.0" encoding="utf-8"?>
<!-- Generator: Adobe Illustrator 27.4.1, SVG Export Plug-In . SVG Version: 6.00 Build 0)  -->
<svg version="1.1" id="Layer_2_00000055691887628494380590000002152794902462195371_"
	 xmlns="http://www.w3.org/2000/svg" xmlns:xlink="http://www.w3.org/1999/xlink" x="0px" y="0px" viewBox="0 0 413.3 413.3"
	 style="enable-background:new 0 0 413.3 413.3;" xml:space="preserve">
<style type="text/css">
	.st0{fill:#686868;}
</style>
<g id="Layer_1-2">
	<path class="st0" d="M206.6,413.3c-55.2,0-107.1-21.5-146.1-60.5C21.5,313.7,0,261.8,0,206.6S21.5,99.5,60.5,60.5S151.4,0,206.6,0
		s107.1,21.5,146.1,60.5c39,39,60.5,90.9,60.5,146.1s-21.5,107.1-60.5,146.1C313.7,391.8,261.8,413.3,206.6,413.3L206.6,413.3z
		 M16.2,214.6c2,47.9,21.7,92.8,55.7,126.8c36,36,83.9,55.8,134.8,55.8s98.8-19.8,134.8-55.8c34-34,53.7-78.9,55.7-126.8H357
		c-4.4,0-8-3.6-8-8s3.6-8,8-8h40.1c-1.2-28.4-8.4-55.4-21.4-80.4l-34.9,20.1c-1.2,0.7-2.6,1.1-4,1.1c-2.9,0-5.5-1.5-6.9-4
		c-2.2-3.8-0.9-8.7,2.9-10.9l34.8-20.1c-7.5-11.7-16.3-22.7-26.2-32.6s-20.9-18.7-32.6-26.2l-20.1,34.8c-1.4,2.5-4.1,4-6.9,4
		c-1.4,0-2.8-0.4-4-1.1c-3.8-2.2-5.1-7.1-2.9-10.9L295,37.6c-24.9-13.1-51.9-20.3-80.4-21.4v40.1c0,4.4-3.6,8-8,8s-8-3.6-8-8V16.2
		c-28.4,1.2-55.4,8.4-80.3,21.4l20.1,34.8c2.2,3.8,0.9,8.7-2.9,10.9c-1.2,0.7-2.6,1.1-4,1.1c-2.9,0-5.5-1.5-6.9-4l-20.1-34.8
		c-11.7,7.5-22.7,16.3-32.6,26.2c-9.9,9.9-18.7,20.9-26.2,32.6l34.8,20.1c3.8,2.2,5.1,7.1,2.9,10.9c-1.4,2.5-4.1,4-6.9,4
		c-1.4,0-2.8-0.4-4-1.1l-34.8-20.1c-13.1,24.9-20.3,51.9-21.4,80.4h40.1c4.4,0,8,3.6,8,8s-3.6,8-8,8L16.2,214.6L16.2,214.6z"/>
	<path class="st0" d="M206.6,240.1c-18.5,0-33.5-15-33.5-33.5s15-33.5,33.5-33.5c6.2,0,12.3,1.7,17.6,5l58.8-59.7
		c1.5-1.5,3.5-2.4,5.7-2.4s4.1,0.8,5.6,2.3c1.5,1.5,2.4,3.5,2.4,5.6c0,2.1-0.8,4.2-2.3,5.7l-58.9,59.9c3.1,5.2,4.7,11,4.7,17.1
		C240.1,225.1,225.1,240.1,206.6,240.1L206.6,240.1z M206.6,189.2c-9.6,0-17.5,7.9-17.5,17.5s7.9,17.5,17.5,17.5s17.5-7.9,17.5-17.5
		S216.3,189.2,206.6,189.2z"/>
</g>
</svg>
