<?xml version="1.0" encoding="UTF-8"?><svg id="Layer_2" xmlns="http://www.w3.org/2000/svg" viewBox="0 0 436.03 339.55"><defs><style>.cls-1{fill:#686969;}</style></defs><g id="Layer_1-2"><path class="cls-1" d="m181.4,0C131.92,0,86.96,14.53,54.02,38.57,21.08,62.61,0,96.57,0,134.44v.06c.09,41.6,27.08,79.46,69.71,104.49l-6.27,67.48c-.28,3.17,1.39,6.19,4.23,7.63,2.84,1.44,6.26,1.02,8.66-1.08l56.56-49.43c15.84,3.26,32.07,5.33,48.51,5.34,4.4,0,8.71-.23,13.03-.47,26.08,23.69,64.61,37,105.32,37.03,11.94,0,23.71-1.55,35.24-3.85l41.21,35.98c2.4,2.09,5.84,2.51,8.68,1.05,2.83-1.46,4.49-4.5,4.19-7.67l-4.53-48.86c31.26-18.8,51.43-46.84,51.49-77.99v-.06c-.06-39.04-30.5-72.75-75.22-89.59-5.95-29.78-25-56.21-52.04-75.95C275.82,14.53,230.88,0,181.4,0h0Zm0,15.57c46.41,0,88.28,13.77,118.18,35.59,25.13,18.34,41.63,42.03,46.26,68.18,0,.42.05.84.12,1.25.64,3.63.98,7.31,1.16,10.98.03.96.12,1.91.12,2.88,0,.73-.06,1.46-.09,2.19-.06,2.4-.23,4.78-.49,7.15-.09.86-.15,1.72-.27,2.57,0,.06-.02.12-.03.18-.42,2.91-1.01,5.8-1.72,8.65-.18.7-.31,1.4-.5,2.1-.31,1.13-.76,2.22-1.11,3.35-.81,2.58-1.66,5.16-2.71,7.68-.59,1.4-1.31,2.77-1.96,4.15-.99,2.09-1.99,4.18-3.13,6.22-.92,1.63-1.95,3.21-2.97,4.81-1.08,1.7-2.16,3.39-3.35,5.05-1.23,1.72-2.56,3.4-3.91,5.06-1.2,1.49-2.41,2.98-3.7,4.43-1.53,1.72-3.16,3.39-4.81,5.05-1.31,1.32-2.63,2.63-4.01,3.91-1.73,1.6-3.53,3.16-5.37,4.7-1.51,1.27-3.06,2.5-4.65,3.73-1.95,1.49-3.95,2.97-6.01,4.4-1.68,1.17-3.42,2.3-5.17,3.42-2.1,1.34-4.24,2.65-6.43,3.91-1.82,1.04-3.69,2.05-5.57,3.04-2.34,1.23-4.68,2.46-7.12,3.6-1.85.87-3.77,1.69-5.67,2.51-2.65,1.15-5.32,2.27-8.08,3.32-1.68.64-3.41,1.2-5.13,1.8-3.08,1.07-6.17,2.14-9.35,3.07-1.44.42-2.92.78-4.38,1.17-3.61.97-7.22,1.93-10.95,2.72-.96.21-1.95.35-2.92.55-4.14.83-8.32,1.61-12.59,2.2-.91.12-1.85.18-2.77.3-4.47.57-8.96,1.07-13.55,1.38-.02,0-.03,0-.06,0-5.06.34-10.16.58-15.35.58-16.75,0-33.41-1.87-49.38-5.46-2.41-.53-4.92.1-6.78,1.72l-44.48,38.86,4.82-51.84c.29-3.12-1.31-6.11-4.08-7.59-42.09-22.84-65.85-57.98-65.93-94.61,0-32.1,17.75-61.46,47.65-83.28,29.9-21.82,71.77-35.59,118.18-35.59h.01Zm181.39,118.44c34.65,15.97,57.62,41.54,57.67,70.15-.09,26.16-17.06,51.5-47.71,68.1-2.74,1.47-4.34,4.43-4.08,7.53l3.1,33.29-29.09-25.41c-1.87-1.63-4.41-2.27-6.83-1.72-11.67,2.62-23.85,3.97-36.1,3.97-30.41-.02-57.51-9.91-79.25-24.2,31.69-5.14,60.23-16.44,83.45-32.23.46-.3.93-.6,1.38-.91,1.12-.78,2.34-1.48,3.44-2.28,1.1-.8,2.07-1.7,3.15-2.52.85-.65,1.77-1.24,2.6-1.9.89-.71,1.67-1.51,2.54-2.24,2.07-1.73,4.09-3.48,6.04-5.29,1.59-1.47,3.1-2.98,4.61-4.5,1.8-1.82,3.57-3.65,5.25-5.55,1.46-1.65,2.82-3.34,4.18-5.03,1.91-2.38,3.85-4.76,5.57-7.24.03-.06.09-.12.15-.18.03-.06.06-.09.09-.15,2.46-3.57,4.7-7.23,6.74-10.98.06-.12.15-.26.21-.39,1.98-3.68,3.74-7.45,5.29-11.28.21-.54.43-1.08.64-1.63.56-1.46,1.1-2.92,1.6-4.4.18-.5.31-1,.47-1.51.52-1.62,1.02-3.24,1.46-4.88.15-.5.24-1.02.37-1.52.4-1.6.79-3.19,1.11-4.81.15-.74.24-1.48.38-2.22.26-1.43.51-2.86.7-4.3.15-1.03.24-2.08.34-3.12.12-1.14.26-2.27.35-3.42.15-2.26.23-4.54.23-6.83v-.06h0c0-.13-.02-.25-.02-.37v.02Z"/></g></svg>