<?xml version="1.0" encoding="UTF-8"?><svg id="Layer_2" xmlns="http://www.w3.org/2000/svg" xmlns:xlink="http://www.w3.org/1999/xlink" viewBox="0 0 786.16 306.13"><defs><style>.cls-1{fill:url(#New_Gradient_Swatch-7);}.cls-2{fill:url(#New_Gradient_Swatch-6);}.cls-3{fill:url(#New_Gradient_Swatch-5);}.cls-4{fill:url(#New_Gradient_Swatch-4);}.cls-5{fill:#7dd6b4;}.cls-6{fill:url(#New_Gradient_Swatch-3);}.cls-7{fill:url(#New_Gradient_Swatch);fill-rule:evenodd;}.cls-8{fill:url(#New_Gradient_Swatch-2);}</style><linearGradient id="New_Gradient_Swatch" x1="0" y1="153.06" x2="306.13" y2="153.06" gradientUnits="userSpaceOnUse"><stop offset="0" stop-color="#6a65bf"/><stop offset=".17" stop-color="#6a6abd"/><stop offset=".39" stop-color="#6b79b9"/><stop offset=".63" stop-color="#6c93b3"/><stop offset=".89" stop-color="#6eb7ab"/><stop offset="1" stop-color="#6fc9a7"/></linearGradient><linearGradient id="New_Gradient_Swatch-2" x1="51.3" y1="497.28" x2="609.74" y2="-56.05" xlink:href="#New_Gradient_Swatch"/><linearGradient id="New_Gradient_Swatch-3" x1="51.3" y1="497.28" x2="609.74" y2="-56.05" xlink:href="#New_Gradient_Swatch"/><linearGradient id="New_Gradient_Swatch-4" x1="51.3" y1="497.28" x2="609.74" y2="-56.05" xlink:href="#New_Gradient_Swatch"/><linearGradient id="New_Gradient_Swatch-5" x1="51.3" y1="497.28" x2="609.74" y2="-56.05" xlink:href="#New_Gradient_Swatch"/><linearGradient id="New_Gradient_Swatch-6" x1="51.3" y1="497.28" x2="609.74" y2="-56.05" xlink:href="#New_Gradient_Swatch"/><linearGradient id="New_Gradient_Swatch-7" x1="51.3" y1="497.28" x2="609.74" y2="-56.05" xlink:href="#New_Gradient_Swatch"/></defs><g id="Layer_1-2"><path class="cls-7" d="m98.72,31.86c3.99,2.14,7.83,4.46,11.49,6.93,7.41,5,14.27,10.65,20.49,16.87,4.57,4.57,8.84,9.5,12.77,14.73,2.34,3.12,5.69,4.8,9.59,4.8s7.25-1.68,9.59-4.8c3.93-5.23,8.2-10.16,12.77-14.73,6.22-6.21,13.08-11.87,20.49-16.87,3.66-2.47,7.5-4.78,11.49-6.93,3.08-1.66,6.37-1.91,9.67-.74,3.3,1.17,5.7,3.43,7.06,6.65l4.65,11.03c2.38,5.66.16,12.13-5.2,15.12-2.56,1.43-5.09,2.99-7.57,4.66-5.4,3.64-10.47,7.83-15.15,12.51-4.67,4.67-8.87,9.75-12.51,15.15-2.85,4.23-5.36,8.58-7.49,13.02-2.25,4.67-1.34,10.01,2.33,13.67,3.67,3.67,9,4.58,13.67,2.33,4.44-2.14,8.79-4.64,13.02-7.5,5.4-3.64,10.47-7.83,15.15-12.51,4.67-4.67,8.87-9.75,12.51-15.15,1.67-2.48,3.23-5.01,4.66-7.57,3-5.36,9.47-7.58,15.13-5.2l11.03,4.65c3.23,1.36,5.49,3.76,6.65,7.06,1.17,3.3.92,6.58-.74,9.67-2.15,3.99-4.46,7.83-6.93,11.49-5,7.41-10.65,14.27-16.87,20.49-4.57,4.57-9.5,8.84-14.73,12.77-3.12,2.34-4.79,5.69-4.79,9.59s1.68,7.25,4.79,9.59c5.23,3.93,10.16,8.19,14.73,12.77,6.22,6.22,11.87,13.08,16.87,20.49,2.47,3.66,4.78,7.5,6.93,11.49,1.66,3.08,1.91,6.37.74,9.67-1.17,3.3-3.42,5.7-6.65,7.06l-11.03,4.65c-5.66,2.38-12.13.16-15.13-5.2-1.43-2.56-2.99-5.09-4.66-7.57-3.64-5.4-7.83-10.47-12.51-15.15-4.67-4.67-9.75-8.87-15.15-12.51-4.23-2.85-8.58-5.36-13.02-7.5-4.68-2.25-10.01-1.34-13.67,2.33-3.67,3.67-4.58,9-2.33,13.67,2.13,4.44,4.64,8.8,7.49,13.02,3.64,5.4,7.84,10.47,12.51,15.15,4.67,4.67,9.75,8.87,15.15,12.51,2.48,1.67,5.01,3.23,7.57,4.66,5.36,3,7.58,9.47,5.2,15.12l-4.65,11.03c-1.36,3.23-3.75,5.48-7.06,6.65-3.3,1.17-6.58.91-9.67-.74-4-2.15-7.83-4.46-11.49-6.93-7.41-5-14.27-10.65-20.49-16.87-4.57-4.57-8.84-9.5-12.77-14.73-2.34-3.12-5.7-4.8-9.59-4.8s-7.25,1.68-9.59,4.8c-3.93,5.23-8.19,10.16-12.77,14.73-6.21,6.21-13.08,11.87-20.49,16.87-3.66,2.47-7.5,4.78-11.49,6.93-3.08,1.66-6.37,1.91-9.67.74-3.3-1.17-5.7-3.43-7.06-6.65l-4.65-11.03c-2.38-5.66-.16-12.13,5.2-15.12,2.56-1.43,5.09-2.99,7.57-4.66,5.4-3.64,10.48-7.83,15.15-12.51,4.67-4.67,8.87-9.75,12.51-15.15,2.85-4.23,5.36-8.58,7.49-13.02,2.25-4.67,1.34-10.01-2.33-13.67-3.67-3.67-9-4.58-13.68-2.33-4.44,2.13-8.79,4.64-13.02,7.5-5.4,3.64-10.48,7.83-15.15,12.51-4.67,4.67-8.87,9.75-12.51,15.15-1.67,2.48-3.23,5.01-4.66,7.57-3,5.36-9.47,7.58-15.12,5.2l-11.03-4.65c-3.22-1.36-5.48-3.76-6.65-7.06-1.17-3.3-.92-6.58.74-9.67,2.14-3.99,4.46-7.83,6.93-11.49,5-7.41,10.65-14.27,16.87-20.49,4.57-4.57,9.5-8.84,14.73-12.77,3.12-2.34,4.8-5.69,4.8-9.59s-1.68-7.25-4.8-9.59c-5.23-3.93-10.15-8.19-14.73-12.77-6.21-6.21-11.87-13.08-16.87-20.49-2.47-3.66-4.78-7.5-6.93-11.49-1.66-3.08-1.91-6.37-.74-9.67,1.16-3.3,3.42-5.7,6.65-7.06l11.03-4.65c5.66-2.38,12.13-.16,15.12,5.2,1.43,2.56,2.99,5.09,4.66,7.57,3.64,5.4,7.84,10.47,12.51,15.15,4.67,4.67,9.75,8.87,15.15,12.51,4.23,2.85,8.58,5.36,13.02,7.5,4.68,2.25,10.01,1.34,13.68-2.33,3.67-3.67,4.58-9,2.33-13.67-2.13-4.44-4.64-8.79-7.49-13.02-3.64-5.4-7.84-10.47-12.51-15.15-4.67-4.67-9.75-8.87-15.15-12.51-2.48-1.67-5.01-3.23-7.57-4.66-5.36-3-7.58-9.47-5.2-15.12l4.65-11.03c1.36-3.23,3.76-5.49,7.06-6.65,3.3-1.17,6.58-.91,9.67.74h0ZM0,153.06c0,13.98,11.34,25.32,25.32,25.32s25.32-11.34,25.32-25.32-11.33-25.32-25.32-25.32S0,139.08,0,153.06h0Zm153.06,153.06c13.98,0,25.32-11.34,25.32-25.32s-11.34-25.32-25.32-25.32-25.32,11.34-25.32,25.32,11.34,25.32,25.32,25.32h0Zm153.06-153.06c0-13.98-11.34-25.32-25.32-25.32s-25.32,11.34-25.32,25.32,11.33,25.32,25.32,25.32,25.32-11.34,25.32-25.32h0ZM153.06,0c-13.98,0-25.32,11.34-25.32,25.32s11.34,25.32,25.32,25.32,25.32-11.34,25.32-25.32S167.05,0,153.06,0Z"/><path class="cls-5" d="m406.99,129.13c18.44,0,31.86,15.1,31.86,36.63s-13.42,36.63-31.86,36.63c-8.66,0-17.01-3.33-22.55-10.11l-.85,7.63c-4.94-.34-9.88-.52-14.83-.52s-9.89.17-14.83.52l-.34-14.14,7.59-1.38v-65.26l-7.59-1.38.69-14.14c5.17.34,10.34.52,15.52.52s10.35-.17,15.52-.52v31.54c-1.51,2.33-2.68,4.94-3.43,7.82,5.09-8.94,14.57-13.83,25.1-13.83h0Zm-7.33,54.91c10.52,0,14.35-8.77,14.35-18.31s-3.83-18.25-14.35-18.25-14.35,8.71-14.35,18.25,3.83,18.31,14.35,18.31h0Z"/><path class="cls-5" d="m520.45,185.76l-.35,14.14c-4.97-.34-9.86-.48-14.83-.48s-9.86.14-14.83.48l-.95-8.54c-4.62,7.37-13.16,11.03-22.09,11.03-12.69,0-24.42-7.45-24.42-21.18,0-20.97,27.32-23.94,39.05-23.94h6.69v-2.07c0-5.86-6.21-7.73-12.42-7.73-8.62,0-18.28,3.66-24.63,7.73l-3.93-13.59c7.24-7.45,19.87-12.49,32.15-12.49,21.45,0,32.97,10,32.97,28.35v26.9l7.59,1.38Zm-46.36-1.72c7.66,0,14.62-7.73,14.62-14.97h0s-4.41,0-4.41,0c-8.48,0-17.31,2.14-17.31,8.69,0,3.66,2.69,6.28,7.1,6.28h0Z"/><path class="cls-5" d="m579.37,129.13c18.44,0,31.86,15.1,31.86,36.63s-13.42,36.63-31.86,36.63c-8.66,0-17.01-3.33-22.55-10.11l-.85,7.63c-4.94-.34-9.88-.52-14.83-.52s-9.89.17-14.83.52l-.34-14.14,7.59-1.38v-65.26l-7.59-1.38.69-14.14c5.17.34,10.34.52,15.52.52s10.35-.17,15.52-.52v31.54c-1.51,2.33-2.68,4.94-3.43,7.82,5.09-8.94,14.57-13.83,25.1-13.83h0Zm-7.33,54.91c10.52,0,14.35-8.77,14.35-18.31s-3.83-18.25-14.35-18.25-14.35,8.71-14.35,18.25,3.83,18.31,14.35,18.31h0Z"/><path class="cls-5" d="m695.8,165.9c0,23.11-16.36,36.63-39.53,36.63s-39.53-13.52-39.53-36.63,16.36-36.63,39.53-36.63,39.53,13.52,39.53,36.63Zm-39.53,18.28c10.51,0,14.69-8.77,14.69-18.31s-4.18-18.25-14.69-18.25-14.69,8.71-14.69,18.25,4.18,18.31,14.69,18.31h0Z"/><path class="cls-5" d="m786.16,185.76l-.34,14.14c-6.43-.34-12.88-.52-19.32-.52s-12.88.17-19.32.52l-.34-14.14,7.59-1.38v-23.24c0-9.2-4.34-13.67-12.42-13.67s-12.41,6.72-12.41,15.77v21.14l7.59,1.38-.35,14.14c-6.43-.34-12.87-.52-19.32-.52s-12.88.17-19.32.52l-.35-14.14,7.59-1.38v-37.25l-7.59-1.38.69-14.14c4.88.34,9.77.52,14.66.52s9.78-.17,14.66-.52l.39,3.53c-1.56,2.36-2.77,5.05-3.44,8.07,2.11-3.9,5.02-6.97,8.52-9.25,4.99-3.24,11.17-4.84,17.93-4.84,18.06,0,27.3,11.42,27.3,30.8v24.45l7.59,1.38Z"/><path class="cls-8" d="m98.72,31.86c3.99,2.14,7.83,4.46,11.49,6.93,7.41,5,14.27,10.65,20.49,16.87,4.57,4.57,8.84,9.5,12.77,14.73,2.34,3.12,5.69,4.8,9.59,4.8s7.25-1.68,9.59-4.8c3.93-5.23,8.2-10.16,12.77-14.73,6.22-6.21,13.08-11.87,20.49-16.87,3.66-2.47,7.5-4.78,11.49-6.93,3.08-1.66,6.37-1.91,9.67-.74,3.3,1.17,5.7,3.43,7.06,6.65l4.65,11.03c2.38,5.66.16,12.13-5.2,15.12-2.56,1.43-5.09,2.99-7.57,4.66-5.4,3.64-10.47,7.83-15.15,12.51-4.67,4.67-8.87,9.75-12.51,15.15-2.85,4.23-5.36,8.58-7.49,13.02-2.25,4.67-1.34,10.01,2.33,13.67,3.67,3.67,9,4.58,13.67,2.33,4.44-2.14,8.79-4.64,13.02-7.5,5.4-3.64,10.47-7.83,15.15-12.51,4.67-4.67,8.87-9.75,12.51-15.15,1.67-2.48,3.23-5.01,4.66-7.57,3-5.36,9.47-7.58,15.13-5.2l11.03,4.65c3.23,1.36,5.49,3.76,6.65,7.06,1.17,3.3.92,6.58-.74,9.67-2.15,3.99-4.46,7.83-6.93,11.49-5,7.41-10.65,14.27-16.87,20.49-4.57,4.57-9.5,8.84-14.73,12.77-3.12,2.34-4.79,5.69-4.79,9.59s1.68,7.25,4.79,9.59c5.23,3.93,10.16,8.19,14.73,12.77,6.22,6.22,11.87,13.08,16.87,20.49,2.47,3.66,4.78,7.5,6.93,11.49,1.66,3.08,1.91,6.37.74,9.67-1.17,3.3-3.42,5.7-6.65,7.06l-11.03,4.65c-5.66,2.38-12.13.16-15.13-5.2-1.43-2.56-2.99-5.09-4.66-7.57-3.64-5.4-7.83-10.47-12.51-15.15-4.67-4.67-9.75-8.87-15.15-12.51-4.23-2.85-8.58-5.36-13.02-7.5-4.68-2.25-10.01-1.34-13.67,2.33-3.67,3.67-4.58,9-2.33,13.67,2.13,4.44,4.64,8.8,7.49,13.02,3.64,5.4,7.84,10.47,12.51,15.15,4.67,4.67,9.75,8.87,15.15,12.51,2.48,1.67,5.01,3.23,7.57,4.66,5.36,3,7.58,9.47,5.2,15.12l-4.65,11.03c-1.36,3.23-3.75,5.48-7.06,6.65-3.3,1.17-6.58.91-9.67-.74-4-2.15-7.83-4.46-11.49-6.93-7.41-5-14.27-10.65-20.49-16.87-4.57-4.57-8.84-9.5-12.77-14.73-2.34-3.12-5.7-4.8-9.59-4.8s-7.25,1.68-9.59,4.8c-3.93,5.23-8.19,10.16-12.77,14.73-6.21,6.21-13.08,11.87-20.49,16.87-3.66,2.47-7.5,4.78-11.49,6.93-3.08,1.66-6.37,1.91-9.67.74-3.3-1.17-5.7-3.43-7.06-6.65l-4.65-11.03c-2.38-5.66-.16-12.13,5.2-15.12,2.56-1.43,5.09-2.99,7.57-4.66,5.4-3.64,10.48-7.83,15.15-12.51,4.67-4.67,8.87-9.75,12.51-15.15,2.85-4.23,5.36-8.58,7.49-13.02,2.25-4.67,1.34-10.01-2.33-13.67-3.67-3.67-9-4.58-13.68-2.33-4.44,2.13-8.79,4.64-13.02,7.5-5.4,3.64-10.48,7.83-15.15,12.51-4.67,4.67-8.87,9.75-12.51,15.15-1.67,2.48-3.23,5.01-4.66,7.57-3,5.36-9.47,7.58-15.12,5.2l-11.03-4.65c-3.22-1.36-5.48-3.76-6.65-7.06-1.17-3.3-.92-6.58.74-9.67,2.14-3.99,4.46-7.83,6.93-11.49,5-7.41,10.65-14.27,16.87-20.49,4.57-4.57,9.5-8.84,14.73-12.77,3.12-2.34,4.8-5.69,4.8-9.59s-1.68-7.25-4.8-9.59c-5.23-3.93-10.15-8.19-14.73-12.77-6.21-6.21-11.87-13.08-16.87-20.49-2.47-3.66-4.78-7.5-6.93-11.49-1.66-3.08-1.91-6.37-.74-9.67,1.16-3.3,3.42-5.7,6.65-7.06l11.03-4.65c5.66-2.38,12.13-.16,15.12,5.2,1.43,2.56,2.99,5.09,4.66,7.57,3.64,5.4,7.84,10.47,12.51,15.15,4.67,4.67,9.75,8.87,15.15,12.51,4.23,2.85,8.58,5.36,13.02,7.5,4.68,2.25,10.01,1.34,13.68-2.33,3.67-3.67,4.58-9,2.33-13.67-2.13-4.44-4.64-8.79-7.49-13.02-3.64-5.4-7.84-10.47-12.51-15.15-4.67-4.67-9.75-8.87-15.15-12.51-2.48-1.67-5.01-3.23-7.57-4.66-5.36-3-7.58-9.47-5.2-15.12l4.65-11.03c1.36-3.23,3.76-5.49,7.06-6.65,3.3-1.17,6.58-.91,9.67.74h0ZM0,153.06c0,13.98,11.34,25.32,25.32,25.32s25.32-11.34,25.32-25.32-11.33-25.32-25.32-25.32S0,139.08,0,153.06h0Zm153.06,153.06c13.98,0,25.32-11.34,25.32-25.32s-11.34-25.32-25.32-25.32-25.32,11.34-25.32,25.32,11.34,25.32,25.32,25.32h0Zm153.06-153.06c0-13.98-11.34-25.32-25.32-25.32s-25.32,11.34-25.32,25.32,11.33,25.32,25.32,25.32,25.32-11.34,25.32-25.32h0ZM153.06,0c-13.98,0-25.32,11.34-25.32,25.32s11.34,25.32,25.32,25.32,25.32-11.34,25.32-25.32S167.05,0,153.06,0Z"/><path class="cls-6" d="m406.99,129.13c18.44,0,31.86,15.1,31.86,36.63s-13.42,36.63-31.86,36.63c-8.66,0-17.01-3.33-22.55-10.11l-.85,7.63c-4.94-.34-9.88-.52-14.83-.52s-9.89.17-14.83.52l-.34-14.14,7.59-1.38v-65.26l-7.59-1.38.69-14.14c5.17.34,10.34.52,15.52.52s10.35-.17,15.52-.52v31.54c-1.51,2.33-2.68,4.94-3.43,7.82,5.09-8.94,14.57-13.83,25.1-13.83h0Zm-7.33,54.91c10.52,0,14.35-8.77,14.35-18.31s-3.83-18.25-14.35-18.25-14.35,8.71-14.35,18.25,3.83,18.31,14.35,18.31h0Z"/><path class="cls-4" d="m520.45,185.76l-.35,14.14c-4.97-.34-9.86-.48-14.83-.48s-9.86.14-14.83.48l-.95-8.54c-4.62,7.37-13.16,11.03-22.09,11.03-12.69,0-24.42-7.45-24.42-21.18,0-20.97,27.32-23.94,39.05-23.94h6.69v-2.07c0-5.86-6.21-7.73-12.42-7.73-8.62,0-18.28,3.66-24.63,7.73l-3.93-13.59c7.24-7.45,19.87-12.49,32.15-12.49,21.45,0,32.97,10,32.97,28.35v26.9l7.59,1.38Zm-46.36-1.72c7.66,0,14.62-7.73,14.62-14.97h0s-4.41,0-4.41,0c-8.48,0-17.31,2.14-17.31,8.69,0,3.66,2.69,6.28,7.1,6.28h0Z"/><path class="cls-3" d="m579.37,129.13c18.44,0,31.86,15.1,31.86,36.63s-13.42,36.63-31.86,36.63c-8.66,0-17.01-3.33-22.55-10.11l-.85,7.63c-4.94-.34-9.88-.52-14.83-.52s-9.89.17-14.83.52l-.34-14.14,7.59-1.38v-65.26l-7.59-1.38.69-14.14c5.17.34,10.34.52,15.52.52s10.35-.17,15.52-.52v31.54c-1.51,2.33-2.68,4.94-3.43,7.82,5.09-8.94,14.57-13.83,25.1-13.83h0Zm-7.33,54.91c10.52,0,14.35-8.77,14.35-18.31s-3.83-18.25-14.35-18.25-14.35,8.71-14.35,18.25,3.83,18.31,14.35,18.31h0Z"/><path class="cls-2" d="m695.8,165.9c0,23.11-16.36,36.63-39.53,36.63s-39.53-13.52-39.53-36.63,16.36-36.63,39.53-36.63,39.53,13.52,39.53,36.63Zm-39.53,18.28c10.51,0,14.69-8.77,14.69-18.31s-4.18-18.25-14.69-18.25-14.69,8.71-14.69,18.25,4.18,18.31,14.69,18.31h0Z"/><path class="cls-1" d="m786.16,185.76l-.34,14.14c-6.43-.34-12.88-.52-19.32-.52s-12.88.17-19.32.52l-.34-14.14,7.59-1.38v-23.24c0-9.2-4.34-13.67-12.42-13.67s-12.41,6.72-12.41,15.77v21.14l7.59,1.38-.35,14.14c-6.43-.34-12.87-.52-19.32-.52s-12.88.17-19.32.52l-.35-14.14,7.59-1.38v-37.25l-7.59-1.38.69-14.14c4.88.34,9.77.52,14.66.52s9.78-.17,14.66-.52l.39,3.53c-1.56,2.36-2.77,5.05-3.44,8.07,2.11-3.9,5.02-6.97,8.52-9.25,4.99-3.24,11.17-4.84,17.93-4.84,18.06,0,27.3,11.42,27.3,30.8v24.45l7.59,1.38Z"/></g></svg>