<?xml version="1.0" encoding="UTF-8"?><svg id="Layer_2" xmlns="http://www.w3.org/2000/svg" viewBox="0 0 245.4 266.91"><defs><style>.cls-1{fill:none;stroke:#5b5b5b;stroke-miterlimit:10;stroke-width:16px;}.cls-2{fill:#5b5b5b;}</style></defs><g id="Layer_1-2"><path class="cls-2" d="m142.41,2.1c-6.36-1.37-12.95-2.1-19.71-2.1h0c-6.76,0-13.35.73-19.71,2.1-1.17.24-10.87,2.74-15.81,4.92C53.18,21.03,29.17,54.52,29.17,93.53v45.1c0,16.52-5.41,32.94-15.24,46.23l-10.78,14.57c-3.62,4.9-4.17,11.32-1.43,16.76,2.74,5.44,8.23,8.82,14.32,8.82h213.3c6.09,0,11.58-3.38,14.32-8.82,2.74-5.44,2.19-11.86-1.43-16.76l-10.78-14.57c-9.83-13.29-15.24-29.7-15.24-46.23v-45.1c0-39-24-72.5-58.01-86.51m71.72,202.24c-.18.36-.43.36-.58.36H16.05c-.15,0-.4,0-.58-.36-.18-.36-.03-.56.06-.68l10.78-14.57c11.77-15.91,18.26-35.58,18.26-55.38v-45.1c0-43.09,35.06-78.14,78.14-78.14h0c43.09,0,78.14,35.06,78.14,78.14v45.1c0,19.79,6.48,39.46,18.26,55.38l10.78,14.57c.09.12.24.32.06.68Z"/><path class="cls-1" d="m159.58,220.91c0,20.99-17.01,38-38,38s-38-17.01-38-38"/></g></svg>