<?xml version="1.0" encoding="UTF-8"?><svg id="Layer_2" xmlns="http://www.w3.org/2000/svg" viewBox="0 0 372.66 372.66"><defs><style>.cls-1{fill:#686868;}</style></defs><g id="Layer_1-2"><path class="cls-1" d="m247.93,42.48c-56.64-56.64-148.81-56.64-205.45,0-56.64,56.64-56.64,148.81,0,205.45,50.54,50.54,129.35,55.98,185.98,16.34l100.97,100.97c9.89,9.89,25.92,9.89,35.81,0,9.89-9.89,9.89-25.92,0-35.81l-100.97-100.97c39.64-56.63,34.2-135.44-16.34-185.98Zm-23.87,181.58c-43.48,43.48-114.23,43.48-157.71,0-43.48-43.48-43.48-114.23,0-157.71,43.48-43.48,114.22-43.48,157.71,0,43.48,43.48,43.48,114.23,0,157.71Z"/></g></svg>