<?xml version="1.0" encoding="UTF-8"?><svg id="Layer_2" xmlns="http://www.w3.org/2000/svg" viewBox="0 0 385.11 385.1"><defs><style>.cls-1{fill:#686969;}</style></defs><g id="Layer_1-2"><path class="cls-1" d="m175.26,385.1c-10.33,0-19.07-7.39-20.78-17.58l-4.89-29.37-1.84-.57c-4.45-1.39-8.84-2.97-13.05-4.7-4.22-1.74-8.34-3.66-12.25-5.71l-1.7-.89-24.54,17.47c-3.55,2.56-7.76,3.92-12.17,3.92-5.6,0-10.88-2.2-14.87-6.2l-24.36-24.36c-7.33-7.26-8.29-18.67-2.28-27.12l17.24-23.98-.93-1.72c-2.51-4.66-4.79-9.5-6.79-14.39-1.56-3.82-2.96-7.73-4.18-11.63l-.57-1.83-29.69-5.06c-10.19-1.71-17.59-10.45-17.59-20.79v-34.42c0-10.33,7.39-19.08,17.58-20.79l29.06-4.9.56-1.86c1.37-4.54,2.96-9.05,4.73-13.41,1.77-4.36,3.77-8.66,5.92-12.77l.89-1.7-17.47-24.54c-5.99-8.41-5.03-19.81,2.28-27.12l24.44-24.36c3.92-3.99,9.21-6.2,14.88-6.2,4.46,0,8.69,1.35,12.23,3.91l24.07,17.34,1.72-.93c4.14-2.23,8.43-4.29,12.77-6.12,4.34-1.83,8.8-3.46,13.25-4.85l1.83-.57,5.06-29.69c1.71-10.19,10.45-17.59,20.79-17.59h34.42c10.33,0,19.07,7.39,20.79,17.58l4.9,29.06,1.87.56c4.56,1.36,9.16,3,13.67,4.85,4.51,1.86,9.02,3.97,13.4,6.28l1.71.9,24.3-17.31c3.55-2.56,7.76-3.92,12.16-3.92,5.6,0,10.88,2.2,14.88,6.2l24.36,24.36c7.33,7.26,8.29,18.67,2.28,27.12l-17.31,24.22.9,1.71c2.05,3.87,3.96,7.91,5.68,12,1.93,4.59,3.66,9.33,5.14,14.11l.57,1.84,29.37,4.98c10.24,1.72,17.57,10.44,17.43,20.74v34.46c0,10.33-7.4,19.08-17.58,20.78l-29.38,4.9-.56,1.86c-1.09,3.6-2.38,7.27-3.82,10.91-2,5.05-4.36,10.16-7,15.2l-.89,1.7,17.3,24.3c5.99,8.41,5.03,19.81-2.28,27.12l-24.36,24.36c-4,4-9.28,6.2-14.88,6.2-4.45,0-8.68-1.35-12.23-3.91l-24.23-17.32-1.71.9c-3.81,2.02-7.79,3.9-11.82,5.6-4.65,1.96-9.46,3.71-14.3,5.21l-1.84.57-4.98,29.37c-1.71,10.19-10.45,17.59-20.79,17.59h-34.5Zm-54.94-75.82c1.39,0,2.81.38,4.01,1.06,5.43,3.11,11.08,5.88,16.79,8.22,5.72,2.34,11.6,4.3,17.5,5.83,2.99.76,5.27,3.25,5.79,6.33l5.72,34.33c.4,2.57,2.59,4.41,5.22,4.41h34.42c2.63,0,4.82-1.87,5.22-4.45l5.8-34.29c.47-3.06,2.74-5.56,5.77-6.31,6.48-1.67,12.87-3.84,18.98-6.42,5.55-2.35,10.97-5.09,16.12-8.15,1.23-.72,2.63-1.1,4.07-1.1,1.65,0,3.21.5,4.52,1.44l28.34,20.18c.92.67,1.97,1.01,3.08,1.01,1.46,0,2.72-.52,3.76-1.56l24.37-24.37c1.78-1.79,2.04-4.71.6-6.79l-20.21-28.47c-1.82-2.58-1.94-5.88-.34-8.62,3.17-5.33,6-10.95,8.41-16.72,2.46-5.91,4.53-12.08,6.15-18.34.76-2.99,3.24-5.27,6.32-5.79l34.33-5.72c1.04-.16,1.97-.6,2.71-1.29l.86-.79h.88l.04-3.17v-34.38c0-2.63-1.87-4.83-4.46-5.22l-34.29-5.8c-3.06-.47-5.55-2.74-6.31-5.76-1.64-6.33-3.74-12.57-6.23-18.54-2.39-5.71-5.2-11.28-8.34-16.56-1.57-2.68-1.43-6.12.34-8.58l20.26-28.45.04-.07c1.37-2.16,1.09-4.9-.67-6.67l-24.37-24.37c-1.01-1.01-2.35-1.57-3.77-1.57-.95,0-1.9.29-2.85.86l-.11.07-28.3,20.34c-1.33.94-2.94,1.44-4.55,1.44-1.41,0-2.81-.38-4.05-1.11-6.49-3.82-13.34-7.13-20.37-9.82-5.05-1.93-10.27-3.58-15.52-4.91-3.02-.75-5.32-3.27-5.85-6.4l-5.72-34.09c-.39-2.57-2.58-4.41-5.21-4.41h-34.42c-2.63,0-4.82,1.87-5.22,4.46l-5.88,34.53c-.52,3.02-2.81,5.51-5.83,6.34-6.06,1.56-12.05,3.59-17.87,6.05-5.83,2.46-11.58,5.38-17.08,8.68-1.23.72-2.63,1.1-4.06,1.1-1.67,0-3.26-.5-4.62-1.46l-28.15-20.08c-.92-.67-1.98-1.02-3.08-1.02-1.46,0-2.73.53-3.77,1.57l-24.36,24.36c-1.8,1.8-2.05,4.72-.59,6.79l20.36,28.63c1.82,2.52,1.99,5.88.43,8.54-3.16,5.38-5.97,11.07-8.36,16.93-2.39,5.86-4.39,12-5.96,18.23-.76,3.02-3.27,5.32-6.4,5.85l-34.09,5.72c-2.57.4-4.41,2.59-4.41,5.22v34.42c0,2.63,1.87,4.82,4.45,5.22l34.54,5.88c3.02.52,5.5,2.81,6.34,5.83,1.21,4.69,2.7,9.34,4.44,13.87,2.77,7.24,6.24,14.33,10.29,21.09,1.59,2.72,1.44,6.12-.37,8.68l-20.15,28.26-.05.07c-1.37,2.15-1.1,4.89.68,6.67l24.36,24.36c1.01,1.01,2.35,1.57,3.77,1.57.94,0,1.9-.29,2.85-.86l.1-.06,28.8-20.49c1.2-.89,2.8-1.4,4.47-1.4Z"/><path class="cls-1" d="m192.59,273.83c-44.84,0-81.32-36.48-81.32-81.32s36.48-81.32,81.32-81.32,81.32,36.48,81.32,81.32-36.48,81.32-81.32,81.32Zm0-146.83c-36.12,0-65.51,29.39-65.51,65.52s29.39,65.51,65.51,65.51,65.51-29.39,65.51-65.51-29.39-65.52-65.51-65.52Z"/></g></svg>