<?xml version="1.0" encoding="UTF-8"?><svg id="Layer_2" xmlns="http://www.w3.org/2000/svg" viewBox="0 0 225.41 256.52"><defs><style>.cls-1{fill:#686868;}</style></defs><g id="Layer_1-2"><path class="cls-1" d="m180.32,256.52c-24.86,0-45.09-20.23-45.09-45.09,0-6.07,1.22-11.99,3.62-17.62l-61.59-35.62c-8.47,8.65-20.11,13.58-32.18,13.58-24.86,0-45.09-20.23-45.09-45.09s20.23-45.09,45.09-45.09c12.55,0,24.48,5.24,33.01,14.43l58.51-39.97c-.92-3.64-1.38-7.32-1.38-10.96,0-24.86,20.23-45.09,45.09-45.09s45.09,20.23,45.09,45.09-20.23,45.09-45.09,45.09c-13.76,0-26.84-6.39-35.37-17.2l-57.24,39.1c1.64,4.75,2.46,9.65,2.46,14.6,0,5.42-.95,10.72-2.84,15.76l62.25,36c8.37-7.81,19.23-12.1,30.73-12.1,24.86,0,45.09,20.23,45.09,45.09s-20.23,45.09-45.09,45.09Zm0-71.49c-14.56,0-26.4,11.84-26.4,26.4s11.84,26.4,26.4,26.4,26.4-11.84,26.4-26.4-11.84-26.4-26.4-26.4ZM45.09,100.28c-14.56,0-26.4,11.84-26.4,26.4s11.84,26.4,26.4,26.4,26.4-11.84,26.4-26.4-11.84-26.4-26.4-26.4ZM180.32,18.69c-14.56,0-26.4,11.84-26.4,26.4s11.84,26.4,26.4,26.4,26.4-11.84,26.4-26.4-11.84-26.4-26.4-26.4Z"/></g></svg>