<svg xmlns="http://www.w3.org/2000/svg" id="Capa_1" viewBox="0 0 512 512"><g><path d="m509.988 290.202c-5.694-9.862-12.617-18.681-20.417-26.189 11.78-16.186 18.066-35.963 17.574-56.25-.124-5.101-2.828-9.786-7.183-12.442-11.156-6.806-23.534-11.07-36.25-12.682l36.825-36.825c5.858-5.858 5.858-15.355 0-21.213-8.053-8.053-17.023-14.78-26.5-20.014 7.189-18.683 8.142-39.412 2.416-58.881-1.438-4.893-5.265-8.72-10.158-10.158-19.467-5.726-40.197-4.773-58.881 2.416-5.234-9.477-11.961-18.447-20.014-26.5-5.858-5.858-15.355-5.858-21.213 0l-36.825 36.825c-1.612-12.717-5.876-25.095-12.682-36.251-2.656-4.352-7.342-7.059-12.441-7.183-20.287-.492-40.063 5.794-56.25 17.574-7.508-7.799-16.327-14.722-26.19-20.417-7.175-4.142-16.348-1.684-20.49 5.49l-15.03 26.033c-1.02-.154-2.063-.208-3.116-.146-5.343.313-10.115 3.451-12.521 8.234-39.447 78.426-67.259 161.789-82.804 248.072l-2.665-2.665c-5.858-5.858-15.355-5.858-21.213 0s-5.858 15.355 0 21.213l12.89 12.89c-27.488 29.316-51.057 62.031-70.13 97.471l-4.927 9.153c-3.138 5.832-2.081 13.032 2.602 17.715l62.132 62.132c4.683 4.683 11.883 5.74 17.715 2.602l9.154-4.926c35.44-19.072 68.168-42.628 97.485-70.116l12.876 12.876c5.858 5.858 15.355 5.858 21.213 0s5.858-15.355 0-21.213l-2.665-2.666c86.284-15.545 169.646-43.357 248.072-82.804 4.783-2.406 7.921-7.177 8.235-12.52.062-1.053.008-2.096-.146-3.115l26.033-15.03c7.173-4.141 9.631-13.315 5.489-20.49zm-60.484-227.706c1.576 10.614.349 21.469-3.521 31.451-2.115-.455-4.234-.859-6.358-1.162-6.878-.983-13.547-1.139-19.91-.499.64-6.363.484-13.033-.499-19.91-.303-2.124-.707-4.243-1.162-6.358 9.982-3.871 20.837-5.098 31.45-3.522zm-118.674 26.75 45.068-45.068c16.587 23.417 19.161 51.55 4.43 66.281-5.858 5.858-5.858 15.355 0 21.213s15.355 5.858 21.213 0c14.731-14.731 42.864-12.157 66.281 4.43l-45.068 45.068c-25.343 25.343-66.581 25.343-91.924 0-25.343-25.344-25.343-66.581 0-91.924zm-26.162 107.751c1.577 1.838 3.209 3.646 4.949 5.386 1.741 1.74 3.548 3.372 5.386 4.949-11.053 13.208-18.394 29.299-21.109 46.374-11.779-.65-23.611-.685-35.447-.1.593-11.83.565-23.683-.079-35.51 17.048-2.726 33.112-10.063 46.3-21.099zm-9.674-161.767c4.267 9.839 5.891 20.636 4.74 31.274-9.214.443-17.91 2.216-25.802 5.227-1.028-6.318-2.906-12.724-5.637-19.118-.843-1.973-1.781-3.916-2.768-5.841 8.64-6.322 18.807-10.317 29.467-11.542zm-75.838 1.358c22.087 18.319 31.849 44.834 21.433 62.877-3.469 6.008-2.308 13.419 2.375 18.102.908.908 1.95 1.714 3.116 2.388 7.175 4.142 16.348 1.684 20.49-5.49 4.579-7.93 12.61-13.489 22.722-16.197-9.742 23.16-9.929 49.419-.518 72.685-9.169 8.857-20.832 14.845-33.37 17.194-6.588-45.809-22.576-90.563-47.947-131.295zm-139.307 441.915-46.351-46.351c17.622-32.608 39.323-62.734 64.58-89.788l71.576 71.576c-27.056 25.256-57.196 46.941-89.805 64.563zm108.338-88.456-74.315-74.316.284-1.799c12.856-81.419 36.942-160.305 71.693-234.891 56.549 95.799 57.364 214.499 2.338 311.006zm31.991 4.015c18.269-34.926 30.071-72.244 35.401-110.262 61.928-3.943 123.974 10.889 177.373 42.355-67.811 31.592-139.182 54.369-212.774 67.907zm234.97-89.518c-40.096-24.949-84.932-41.158-131.312-47.854 2.337-12.573 8.333-24.272 17.212-33.464 23.265 9.411 49.524 9.225 72.684-.517-2.708 10.112-8.267 18.143-16.198 22.721-7.174 4.143-9.632 13.316-5.49 20.491.674 1.166 1.478 2.206 2.388 3.116 4.683 4.682 12.094 5.843 18.103 2.374 9.69-5.595 22.143-5.637 35.065-.117 10.337 4.417 19.915 11.865 27.853 21.527zm10.08-58.07c-1.926-.988-3.869-1.926-5.842-2.769-6.394-2.732-12.8-4.609-19.118-5.638 3.011-7.892 4.784-16.588 5.227-25.801 10.638-1.152 21.435.473 31.274 4.74-1.225 10.661-5.219 20.828-11.541 29.468z"></path></g></svg>